<?xml version="1.0" encoding="utf-8"?>
<!-- Generator: Adobe Illustrator 19.0.0, SVG Export Plug-In . SVG Version: 6.00 Build 0)  -->
<svg version="1.1" id="Layer_1" xmlns="http://www.w3.org/2000/svg" xmlns:xlink="http://www.w3.org/1999/xlink" x="0px" y="0px"
	 viewBox="0 0 300 120" style="enable-background:new 0 0 300 120;" xml:space="preserve">
<style type="text/css">
	.st0{fill:#E9E9E9;}
</style>
<g>
	<path class="st0" d="M63.7,89.2v28H48.6v-28H0V78.1l34.2-76l13.1,5.4L16.5,76.9h32.3l1.4-30.5h13.6v30.5h14.8v12.4H63.7z"/>
	<path class="st0" d="M285.2,89.2v28h-15.1v-28h-48.6V78.1l34.2-76l13.1,5.4L238,76.9h32.3l1.4-30.5h13.6v30.5H300v12.4H285.2z"/>
	<g>
		<g id="XMLID_43_">
			<polygon id="XMLID_47_" class="st0" points="140.1,44 142.8,66 162.9,71.7 175.4,53.1 161.4,34.9 			"/>
			<path id="XMLID_44_" class="st0" d="M149.8,0c-33.2,0-60.1,26.9-60.1,60s26.9,60,60.1,60C183,120,210,93.1,210,60S183,0,149.8,0z
				 M182.5,98l0.6-6.4l-16.9-6.6l-11.9,12.3l6.2,11.6c-3.4,0.7-6.9,1.1-10.6,1.1c-11.6,0-22.3-3.9-30.8-10.5l13.7-7.1l-1.7-20.8
				l-21.8-5.2l-7.2,9c-1.6-4.9-2.5-10.1-2.5-15.5c0-6.3,1.2-12.4,3.3-18l6.3,6.5l18.7-9.1l-1.4-23.8c6.6-3.5,14-5.5,21.9-5.7
				l14.8,14l14.7-5.5c7.7,5.2,13.8,12.4,17.7,20.9L187.7,53l11.2,18.1l0,0C196.4,81.8,190.6,91.2,182.5,98z"/>
		</g>
	</g>
</g>
</svg>
