<?xml version="1.0" encoding="utf-8"?>
<!-- Generator: Adobe Illustrator 18.1.1, SVG Export Plug-In . SVG Version: 6.00 Build 0)  -->
<svg version="1.1" id="Layer_1" xmlns="http://www.w3.org/2000/svg" xmlns:xlink="http://www.w3.org/1999/xlink" x="0px" y="0px"
	 viewBox="0 0 10 10" enable-background="new 0 0 10 10" xml:space="preserve">
<g opacity="0.5">
	<path d="M5.5,9C3.6,9,2,7.4,2,5.5S3.6,2,5.5,2C7.4,2,9,3.6,9,5.5S7.4,9,5.5,9z"/>
	<path d="M5.5,3C6.9,3,8,4.1,8,5.5S6.9,8,5.5,8C4.1,8,3,6.9,3,5.5S4.1,3,5.5,3 M5.5,1C3,1,1,3,1,5.5S3,10,5.5,10C8,10,10,8,10,5.5
		S8,1,5.5,1L5.5,1z"/>
</g>
<path fill="#CA181E" d="M4.5,8C2.6,8,1,6.4,1,4.5S2.6,1,4.5,1C6.4,1,8,2.6,8,4.5S6.4,8,4.5,8z"/>
<path fill="#FFFFFF" d="M4.5,2C5.9,2,7,3.1,7,4.5S5.9,7,4.5,7C3.1,7,2,5.9,2,4.5S3.1,2,4.5,2 M4.5,0C2,0,0,2,0,4.5S2,9,4.5,9
	C7,9,9,7,9,4.5S7,0,4.5,0L4.5,0z"/>
</svg>
