<?xml version="1.0" encoding="utf-8"?>
<!-- Generator: Adobe Illustrator 19.0.0, SVG Export Plug-In . SVG Version: 6.00 Build 0)  -->
<svg version="1.1" id="Layer_1" xmlns="http://www.w3.org/2000/svg" xmlns:xlink="http://www.w3.org/1999/xlink" x="0px" y="0px"
	 viewBox="0 0 22 39.8" style="enable-background:new 0 0 22 39.8;" xml:space="preserve">
<style type="text/css">
	.st0{fill:#A2A2A2;}
	.st1{fill:#1972C4;}
</style>
<g id="XMLID_76_">
	<path id="XMLID_77_" class="st0" d="M9.4,10.5h5.2c1,0,2.1-1.1,2.1-2.1V2.1c0-1-1.1-2.1-2.1-2.1H2.1C1.1,0,0,1.1,0,2.1v6.3
		c0,1,1.1,2.1,2.1,2.1h1v4.2L9.4,10.5z"/>
	<path id="XMLID_78_" class="st0" d="M19.9,4.2h-1v6.3c0,1.4-0.7,2.1-2.1,2.1h-6.3l-4.2,3.1h2.1v4.2l5.2-4.2h6.3
		c1,0,2.1-1.1,2.1-2.1V6.3C22,5.3,20.9,4.2,19.9,4.2z"/>
</g>
<g id="XMLID_54_">
	<path id="XMLID_55_" class="st1" d="M9.4,30.4h5.2c1,0,2.1-1.1,2.1-2.1V22c0-1-1.1-2.1-2.1-2.1H2.1C1.1,19.9,0,21,0,22v6.3
		c0,1,1.1,2.1,2.1,2.1h1v4.2L9.4,30.4z"/>
	<path id="XMLID_61_" class="st1" d="M19.9,24.1h-1v6.3c0,1.4-0.7,2.1-2.1,2.1h-6.3l-4.2,3.1h2.1v4.2l5.2-4.2h6.3
		c1,0,2.1-1.1,2.1-2.1v-7.3C22,25.2,20.9,24.1,19.9,24.1z"/>
</g>
</svg>
