<?xml version="1.0" encoding="utf-8"?>
<!-- Generator: Adobe Illustrator 19.0.0, SVG Export Plug-In . SVG Version: 6.00 Build 0)  -->
<svg version="1.1" id="Layer_1" xmlns="http://www.w3.org/2000/svg" xmlns:xlink="http://www.w3.org/1999/xlink" x="0px" y="0px"
	 viewBox="0 0 25 14" style="enable-background:new 0 0 25 14;" xml:space="preserve">
<style type="text/css">
	.st0{fill:url(#XMLID_2_);}
	.st1{fill:url(#XMLID_3_);}
</style>
<g id="XMLID_35_">
	<linearGradient id="XMLID_2_" gradientUnits="userSpaceOnUse" x1="13.4232" y1="13.9167" x2="13.4232" y2="0.112">
		<stop  offset="0" style="stop-color:#CB181E"/>
		<stop  offset="1" style="stop-color:#FF4D52"/>
	</linearGradient>
	<polygon id="XMLID_39_" class="st0" points="11.4,5.1 11.7,7.7 14,8.4 15.5,6.2 13.8,4.1 	"/>
	<linearGradient id="XMLID_3_" gradientUnits="userSpaceOnUse" x1="12.5" y1="13.9167" x2="12.5" y2="0.112">
		<stop  offset="0" style="stop-color:#CB181E"/>
		<stop  offset="1" style="stop-color:#FF4D52"/>
	</linearGradient>
	<path id="XMLID_36_" class="st1" d="M12.5,0c-3.9,0-7,3.1-7,7s3.1,7,7,7c3.9,0,7-3.1,7-7S16.4,0,12.5,0z M16.3,11.4l0.1-0.7l-2-0.8
		L13,11.4l0.7,1.4c-0.4,0.1-0.8,0.1-1.2,0.1c-1.3,0-2.6-0.5-3.6-1.2l1.6-0.8l-0.2-2.4L7.8,7.8l-0.8,1C6.8,8.2,6.7,7.6,6.7,7
		c0-0.7,0.1-1.4,0.4-2.1l0.7,0.8l2.2-1.1L9.8,1.8c0.8-0.4,1.6-0.6,2.6-0.7l1.7,1.6l1.7-0.6c0.9,0.6,1.6,1.4,2.1,2.4l-0.9,1.6
		l1.3,2.1l0,0C17.9,9.5,17.2,10.6,16.3,11.4z"/>
</g>
</svg>
