<?xml version="1.0" encoding="utf-8"?>
<!-- Generator: Adobe Illustrator 18.1.1, SVG Export Plug-In . SVG Version: 6.00 Build 0)  -->
<svg version="1.1" id="Layer_1" xmlns="http://www.w3.org/2000/svg" xmlns:xlink="http://www.w3.org/1999/xlink" x="0px" y="0px"
	 viewBox="0 0 15 14" enable-background="new 0 0 15 14" xml:space="preserve">
<g>
	<g opacity="0.5">
		<path d="M1,8c0,1.1,0.9,2,2,2h10c1.1,0,2-0.9,2-2V3c0-1.1-0.9-2-2-2H3C1.9,1,1,1.9,1,3V8z"/>
		<polygon points="4,10 4,14 9,10 		"/>
	</g>
	<g>
		<g>
			<g>
				<path fill="#FFFFFF" d="M0,7c0,1.1,0.9,2,2,2h10c1.1,0,2-0.9,2-2V2c0-1.1-0.9-2-2-2H2C0.9,0,0,0.9,0,2V7z"/>
			</g>
			<g>
				<polygon fill="#FFFFFF" points="3,9 3,13 8,9 				"/>
			</g>
		</g>
	</g>
</g>
</svg>
