<?xml version="1.0" encoding="utf-8"?>
<!-- Generator: Adobe Illustrator 19.0.0, SVG Export Plug-In . SVG Version: 6.00 Build 0)  -->
<svg version="1.1" id="Layer_1" xmlns="http://www.w3.org/2000/svg" xmlns:xlink="http://www.w3.org/1999/xlink" x="0px" y="0px"
	 viewBox="0 0 23 20.6" style="enable-background:new 0 0 23 20.6;" xml:space="preserve">
<style type="text/css">
	.st0{fill:#A2A2A2;}
</style>
<g id="XMLID_1_">
	<path id="XMLID_16_" class="st0" d="M6.8,20.6c-0.3,0-0.5-0.1-0.7-0.2c-0.7-0.3-1.1-1-1.1-1.9V15H2.5C1.1,15,0,13.9,0,12.5v-10
		C0,1.1,1.1,0,2.5,0h18C21.9,0,23,1.1,23,2.5v10c0,1.4-1.1,2.5-2.5,2.5h-6.1c-0.2,0-0.6,0.2-0.8,0.3L8.2,20
		C7.8,20.4,7.3,20.6,6.8,20.6z M3,12h2.5C6.9,12,8,13.1,8,14.5v1.8l3.7-3.2c0.7-0.6,1.8-1,2.7-1H20V3H3V12z"/>
</g>
</svg>
