<?xml version="1.0" encoding="utf-8"?>
<!-- Generator: Adobe Illustrator 18.1.1, SVG Export Plug-In . SVG Version: 6.00 Build 0)  -->
<svg version="1.1" id="Layer_1" xmlns="http://www.w3.org/2000/svg" xmlns:xlink="http://www.w3.org/1999/xlink" x="0px" y="0px"
	 viewBox="35.9 1.6 36 76" enable-background="new 35.9 1.6 36 76" xml:space="preserve">
<rect x="35.9" y="1.6" fill="none" width="36" height="76"/>
<g>
	<ellipse fill="#1972C4" cx="53.9" cy="22.3" rx="17.6" ry="17.3"/>
</g>
<g>
	<ellipse fill="#E8E8E8" cx="53.9" cy="19.3" rx="17.6" ry="17.3"/>
</g>
<g opacity="0.2">
	<ellipse cx="53.9" cy="60.3" rx="17.6" ry="17.3"/>
</g>
<g>
	<ellipse fill="#1972C4" cx="53.9" cy="57.3" rx="17.6" ry="17.3"/>
</g>
<g>
	<path fill="#A2A2A2" d="M55.8,15c0.6,0.1,1.1,0.3,1.6,0.6v4.2c0,0.7,0,1.2,0.1,1.5c0.1,0.3,0.3,0.4,0.6,0.4c0.4,0,0.7-0.3,1-0.8
		c0.2-0.5,0.4-1.5,0.4-2.8c0-1.5-0.4-2.7-1.3-3.5c-0.8-0.8-2.2-1.2-3.9-1.2c-1.2,0-2.3,0.3-3.1,0.8c-0.9,0.5-1.5,1.2-1.9,2.1
		c-0.4,0.9-0.7,2-0.7,3.2c0,1.9,0.5,3.3,1.5,4.4c1,1,2.4,1.6,4.3,1.6c0.6,0,1.2-0.1,1.8-0.2c0.6-0.1,1.2-0.3,1.6-0.4l0.7,2.1
		c-0.5,0.2-1.2,0.4-2,0.5c-0.8,0.1-1.5,0.2-2.2,0.2c-1.7,0-3.2-0.3-4.5-1c-1.3-0.7-2.3-1.6-3-2.8c-0.7-1.2-1-2.7-1-4.3
		c0-1.6,0.4-3,1.1-4.3c0.7-1.3,1.7-2.2,3-2.9c1.3-0.7,2.7-1.1,4.4-1.1c1.6,0,3,0.3,4.2,1c1.2,0.6,2.1,1.5,2.7,2.5
		c0.6,1.1,0.9,2.2,0.9,3.4c0,1.1-0.2,2-0.5,2.9c-0.3,0.8-0.8,1.5-1.4,2c-0.6,0.5-1.3,0.7-2,0.7c-0.6,0-1.2-0.2-1.6-0.5
		c-0.4-0.4-0.7-0.8-0.8-1.2c-0.2,0.5-0.5,0.9-1,1.2s-0.9,0.5-1.5,0.5c-1.1,0-1.9-0.4-2.5-1.1c-0.5-0.7-0.8-1.7-0.8-2.9
		c0-1.5,0.4-2.6,1.1-3.5c0.7-0.9,1.8-1.3,3.1-1.3C54.7,14.7,55.2,14.8,55.8,15z M54.3,21.4c0.2-0.1,0.3-0.3,0.4-0.5v-4.1
		c-0.2-0.1-0.4-0.1-0.6-0.1c-0.4,0-0.7,0.2-0.9,0.6c-0.2,0.4-0.3,1.2-0.3,2.2c0,0.8,0.1,1.3,0.2,1.6c0.1,0.3,0.4,0.4,0.7,0.4
		C53.9,21.6,54.1,21.5,54.3,21.4z"/>
</g>
<g>
	<path fill="#FFFFFF" d="M55.8,53c0.6,0.1,1.1,0.3,1.6,0.6v4.2c0,0.7,0,1.2,0.1,1.5c0.1,0.3,0.3,0.4,0.6,0.4c0.4,0,0.7-0.3,1-0.8
		c0.2-0.5,0.4-1.5,0.4-2.8c0-1.5-0.4-2.7-1.3-3.5c-0.8-0.8-2.2-1.2-3.9-1.2c-1.2,0-2.3,0.3-3.1,0.8c-0.9,0.5-1.5,1.2-1.9,2.1
		c-0.4,0.9-0.7,2-0.7,3.2c0,1.9,0.5,3.3,1.5,4.4s2.4,1.6,4.3,1.6c0.6,0,1.2-0.1,1.8-0.2c0.6-0.1,1.2-0.3,1.6-0.4l0.7,2.1
		c-0.5,0.2-1.2,0.4-2,0.5c-0.8,0.1-1.5,0.2-2.2,0.2c-1.7,0-3.2-0.3-4.5-1c-1.3-0.7-2.3-1.6-3-2.8c-0.7-1.2-1-2.7-1-4.3
		c0-1.6,0.4-3,1.1-4.3c0.7-1.3,1.7-2.2,3-2.9c1.3-0.7,2.7-1.1,4.4-1.1c1.6,0,3,0.3,4.2,1c1.2,0.6,2.1,1.5,2.7,2.5
		c0.6,1.1,0.9,2.2,0.9,3.4c0,1.1-0.2,2-0.5,2.9c-0.3,0.8-0.8,1.5-1.4,2c-0.6,0.5-1.3,0.7-2,0.7c-0.6,0-1.2-0.2-1.6-0.5
		c-0.4-0.4-0.7-0.8-0.8-1.2c-0.2,0.5-0.5,0.9-1,1.2c-0.4,0.3-0.9,0.5-1.5,0.5c-1.1,0-1.9-0.4-2.5-1.1c-0.5-0.7-0.8-1.7-0.8-2.9
		c0-1.5,0.4-2.6,1.1-3.5c0.7-0.9,1.8-1.3,3.1-1.3C54.7,52.7,55.2,52.8,55.8,53z M54.3,59.4c0.2-0.1,0.3-0.3,0.4-0.5v-4.1
		c-0.2-0.1-0.4-0.1-0.6-0.1c-0.4,0-0.7,0.2-0.9,0.6c-0.2,0.4-0.3,1.2-0.3,2.2c0,0.8,0.1,1.3,0.2,1.6c0.1,0.3,0.4,0.4,0.7,0.4
		C53.9,59.6,54.1,59.5,54.3,59.4z"/>
</g>
</svg>
