<?xml version="1.0" encoding="utf-8"?>
<!-- Generator: Adobe Illustrator 19.0.0, SVG Export Plug-In . SVG Version: 6.00 Build 0)  -->
<svg version="1.1" id="Layer_1" xmlns="http://www.w3.org/2000/svg" xmlns:xlink="http://www.w3.org/1999/xlink" x="0px" y="0px"
	 viewBox="0 0 20 20" style="enable-background:new 0 0 20 20;" xml:space="preserve">
<style type="text/css">
	.st0{fill:#A2A2A2;}
</style>
<g id="XMLID_1_">
	<g>
		<path id="XMLID_2_" class="st0" d="M17.5,20h-15C1.1,20,0,18.9,0,17.5v-15C0,1.1,1.1,0,2.5,0H4v3H3v14h14V3h-1V0h1.5
			C18.9,0,20,1.1,20,2.5v15C20,18.9,18.9,20,17.5,20z"/>
	</g>
	<path class="st0" d="M14,0.9C14,0.4,13.6,0,13.1,0H6.9C6.4,0,6,0.4,6,0.9v1.3C6,2.6,6.4,3,6.9,3h6.3C13.6,3,14,2.6,14,2.1V0.9z"/>
	<rect x="5" y="5" class="st0" width="10" height="2"/>
	<rect x="5" y="9" class="st0" width="10" height="2"/>
	<rect x="5" y="13" class="st0" width="10" height="2"/>
</g>
</svg>
