<?xml version="1.0" encoding="utf-8"?>
<!-- Generator: Adobe Illustrator 19.0.0, SVG Export Plug-In . SVG Version: 6.00 Build 0)  -->
<svg version="1.1" id="Layer_1" xmlns="http://www.w3.org/2000/svg" xmlns:xlink="http://www.w3.org/1999/xlink" x="0px" y="0px"
	 viewBox="0 0 36 76" style="enable-background:new 0 0 36 76;" xml:space="preserve">
<style type="text/css">
	.st0{fill:#45619C;}
	.st1{fill:#E9E9E9;}
	.st2{fill:#A2A2A2;}
	.st3{opacity:0.2;}
	.st4{fill:#FFFFFF;}
</style>
<g id="XMLID_119_">
	<g id="XMLID_121_">
		<g id="XMLID_124_">
			<ellipse id="XMLID_125_" class="st0" cx="18" cy="20.5" rx="18" ry="17.5"/>
		</g>
		<g id="XMLID_122_">
			<ellipse id="XMLID_123_" class="st1" cx="18" cy="17.5" rx="18" ry="17.5"/>
		</g>
	</g>
	<path id="XMLID_120_" class="st2" d="M16.5,34.9c0,0,0-9.3,0-12.4h-3v-6h3V14c0-2.2,0.6-5.5,5.3-5.5l3.7,0v4c0,0-2.2,0-2.7,0
		c-0.5,0-1.3,0.8-1.3,1.8v2.2h4.4l-0.5,6h-3.9c0,3.1,0,12.2,0,12.2S20.6,34.9,19,35C17.5,35.1,16.5,34.9,16.5,34.9z"/>
</g>
<g id="XMLID_157_" class="st3">
	<ellipse id="XMLID_158_" cx="18" cy="58.5" rx="18" ry="17.5"/>
</g>
<g id="XMLID_130_">
	<ellipse id="XMLID_131_" class="st0" cx="18" cy="55.5" rx="18" ry="17.5"/>
</g>
<path id="XMLID_128_" class="st4" d="M16.5,72.9c0,0,0-9.3,0-12.4h-3v-6h3V52c0-2.2,0.6-5.5,5.3-5.5l3.7,0v4c0,0-2.2,0-2.7,0
	c-0.5,0-1.3,0.8-1.3,1.8v2.2h4.4l-0.5,6h-3.9c0,3.1,0,12.2,0,12.2S20.6,72.9,19,73C17.5,73.1,16.5,72.9,16.5,72.9z"/>
</svg>
