<?xml version="1.0" encoding="utf-8"?>
<!-- Generator: Adobe Illustrator 19.0.0, SVG Export Plug-In . SVG Version: 6.00 Build 0)  -->
<svg version="1.1" id="Layer_1" xmlns="http://www.w3.org/2000/svg" xmlns:xlink="http://www.w3.org/1999/xlink" x="0px" y="0px"
	 viewBox="0 0 70 76" style="enable-background:new 0 0 70 76;" xml:space="preserve">
<style type="text/css">
	.st0{opacity:0.1;}
	.st1{fill:#45619C;}
	.st2{opacity:0.2;fill:#FFFFFF;}
	.st3{fill:#F3F3F5;}
</style>
<g id="XMLID_234_">
	<g id="XMLID_84_" class="st0">
		<path id="XMLID_90_" d="M52.5,3C51.1,3,6.1,3,6.1,3C2.7,3,0,5.7,0,9.1v22.8C0,35.3,2.7,38,6.1,38c0,0,45,0,46.4,0
			C62.2,38,70,30.2,70,20.5C70,10.8,62.2,3,52.5,3z"/>
	</g>
	<g id="XMLID_63_">
		<path id="XMLID_64_" class="st1" d="M52.5,0C51.1,0,6.1,0,6.1,0C2.7,0,0,2.7,0,6.1v22.8C0,32.3,2.7,35,6.1,35c0,0,45,0,46.4,0
			C62.2,35,70,27.2,70,17.5C70,7.8,62.2,0,52.5,0z"/>
	</g>
</g>
<path id="XMLID_233_" class="st2" d="M35,35c0,0,16.9,0,17.5,0C62.2,35,70,27.2,70,17.5C70,7.8,62.2,0,52.5,0C51.9,0,35,0,35,0V35z"
	/>
<g id="XMLID_225_">
	<path id="XMLID_229_" class="st3" d="M27,13.8l-6,0c0,0,0.3-1.4,0.4-2.1c0-0.5,0.1-0.9-0.1-1.4c-0.2-0.7-0.3-1.1-0.6-1.6
		c-0.1-0.3-0.4-0.4-0.7-0.4h-1.2c-0.5,0-0.8,0.4-0.8,0.8c0,0.8,0,1.8,0,1.9c-0.5,1-1,1.9-1.6,2.8c-0.3,0.4-0.6,0.8-0.9,1.2
		c-0.1,0.2-0.2,0.4-0.2,0.6v7.4c0,0.2,0.1,0.4,0.2,0.6c0.2,0.2,0.6,0.5,1.3,0.5c2.1,0,5.5,0,7.9,0c0.3,0,0.6-0.2,0.7-0.4l2.1-3.7
		c0.1-0.3,0.2-0.5,0.2-0.8l0-4.4C27.9,14.2,27.5,13.8,27,13.8L27,13.8z M27,13.8"/>
	<path id="XMLID_226_" class="st3" d="M13.4,15h-2.5c-0.5,0-0.8,0.4-0.8,0.8v7.3c0,0.5,0.4,0.8,0.8,0.8h1.8c0.5,0,0.8-0.4,0.8-0.8
		v-7.3C13.5,15.4,13.9,15,13.4,15L13.4,15z M12.7,15"/>
</g>
<g id="XMLID_148_">
	<g id="XMLID_235_" class="st0">
		<path id="XMLID_236_" d="M52.5,41c-1.4,0-46.4,0-46.4,0C2.7,41,0,43.7,0,47.1v22.8C0,73.3,2.7,76,6.1,76c0,0,45,0,46.4,0
			C62.2,76,70,68.2,70,58.5C70,48.8,62.2,41,52.5,41z"/>
	</g>
	<g id="XMLID_224_">
		<path id="XMLID_232_" class="st1" d="M52.5,38c-1.4,0-46.4,0-46.4,0C2.7,38,0,40.7,0,44.1v22.8C0,70.3,2.7,73,6.1,73
			c0,0,45,0,46.4,0C62.2,73,70,65.2,70,55.5C70,45.8,62.2,38,52.5,38z"/>
	</g>
</g>
<path id="XMLID_146_" class="st2" d="M52.5,38c-1.4,0-46.4,0-46.4,0C2.7,38,0,40.7,0,44.1v22.8C0,70.3,2.7,73,6.1,73
	c0,0,45,0,46.4,0C62.2,73,70,65.2,70,55.5C70,45.8,62.2,38,52.5,38z"/>
<g id="XMLID_107_">
	<path id="XMLID_143_" class="st3" d="M27,51.8l-6,0c0,0,0.3-1.4,0.4-2.1c0-0.5,0.1-0.9-0.1-1.4c-0.2-0.7-0.3-1.1-0.6-1.6
		c-0.1-0.3-0.4-0.4-0.7-0.4h-1.2c-0.5,0-0.8,0.4-0.8,0.8c0,0.8,0,1.8,0,1.9c-0.5,1-1,1.9-1.6,2.8c-0.3,0.4-0.6,0.8-0.9,1.2
		c-0.1,0.2-0.2,0.4-0.2,0.6v7.4c0,0.2,0.1,0.4,0.2,0.6c0.2,0.2,0.6,0.5,1.3,0.5c2.1,0,5.5,0,7.9,0c0.3,0,0.6-0.2,0.7-0.4l2.1-3.7
		c0.1-0.3,0.2-0.5,0.2-0.8l0-4.4C27.9,52.2,27.5,51.8,27,51.8L27,51.8z M27,51.8"/>
	<path id="XMLID_112_" class="st3" d="M13.4,53h-2.5c-0.5,0-0.8,0.4-0.8,0.8v7.3c0,0.5,0.4,0.8,0.8,0.8h1.8c0.5,0,0.8-0.4,0.8-0.8
		v-7.3C13.5,53.4,13.9,53,13.4,53L13.4,53z M12.7,53"/>
</g>
</svg>
