<?xml version="1.0" encoding="utf-8"?>
<!-- Generator: Adobe Illustrator 18.1.1, SVG Export Plug-In . SVG Version: 6.00 Build 0)  -->
<svg version="1.1" id="Layer_1" xmlns="http://www.w3.org/2000/svg" xmlns:xlink="http://www.w3.org/1999/xlink" x="0px" y="0px"
	 viewBox="0 0 36 76" enable-background="new 0 0 36 76" xml:space="preserve">
<rect x="0" fill="none" width="36" height="76"/>
<g>
	<ellipse fill="#45619C" cx="18" cy="20.7" rx="17.6" ry="17.3"/>
</g>
<g>
	<ellipse fill="#FFFFFF" cx="18" cy="17.7" rx="17.6" ry="17.3"/>
</g>
<g opacity="0.2">
	<ellipse cx="18" cy="58.7" rx="17.6" ry="17.3"/>
</g>
<g>
	<ellipse fill="#45619C" cx="18" cy="55.7" rx="17.6" ry="17.3"/>
</g>
<path fill="#A2A2A2" d="M16,34.9c0,0,0-9.3,0-12.4h-3v-6h3V14c0-2.2,0.7-5.5,5.2-5.5l3.8,0v4c0,0-2.3,0-2.8,0
	c-0.5,0-1.2,0.8-1.2,1.8v2.2h4.2l-0.5,6H21c0,3.1,0,12.3,0,12.3s-0.7,0.2-2.4,0.3C17.1,35.1,16,34.9,16,34.9z"/>
<path fill="#FFFFFF" d="M16,72.9c0,0,0-9.3,0-12.4h-3v-6h3V52c0-2.2,0.7-5.5,5.2-5.5l3.8,0v4c0,0-2.3,0-2.8,0
	c-0.5,0-1.2,0.8-1.2,1.8v2.2h4.2l-0.5,6H21c0,3.1,0,12.3,0,12.3s-0.7,0.2-2.4,0.3C17.1,73.1,16,72.9,16,72.9z"/>
</svg>
