<?xml version="1.0" encoding="utf-8"?>
<!-- Generator: Adobe Illustrator 18.1.1, SVG Export Plug-In . SVG Version: 6.00 Build 0)  -->
<svg version="1.1" id="Layer_1" xmlns="http://www.w3.org/2000/svg" xmlns:xlink="http://www.w3.org/1999/xlink" x="0px" y="0px"
	 viewBox="35.9 1.6 36 76" enable-background="new 35.9 1.6 36 76" xml:space="preserve">
<rect x="35.9" y="1.6" fill="none" width="36" height="76"/>
<g>
	<ellipse fill="#1972C4" cx="53.9" cy="22.3" rx="17.6" ry="17.3"/>
</g>
<g>
	<ellipse fill="#E8E8E8" cx="53.9" cy="19.3" rx="17.6" ry="17.3"/>
</g>
<g opacity="0.2">
	<ellipse cx="53.9" cy="60.3" rx="17.6" ry="17.3"/>
</g>
<g>
	<ellipse fill="#1972C4" cx="53.9" cy="57.3" rx="17.6" ry="17.3"/>
</g>
<g>
	<polygon fill="#A2A2A2" points="57.9,19.8 57.9,15.8 49.9,15.8 49.9,19.8 51.9,19.8 51.9,25.8 49.9,25.8 49.9,29.8 57.9,29.8 
		57.9,25.8 55.9,25.8 55.9,19.8 	"/>
	<rect x="51.9" y="8.8" fill="#A2A2A2" width="4" height="4"/>
</g>
<g>
	<polygon fill="#FFFFFF" points="57.9,57.8 57.9,53.8 49.9,53.8 49.9,57.8 51.9,57.8 51.9,63.8 49.9,63.8 49.9,67.8 57.9,67.8 
		57.9,63.8 55.9,63.8 55.9,57.8 	"/>
	<rect x="51.9" y="46.8" fill="#FFFFFF" width="4" height="4"/>
</g>
</svg>
