<?xml version="1.0" encoding="utf-8"?>
<!-- Generator: Adobe Illustrator 18.1.1, SVG Export Plug-In . SVG Version: 6.00 Build 0)  -->
<svg version="1.1" id="Layer_1" xmlns="http://www.w3.org/2000/svg" xmlns:xlink="http://www.w3.org/1999/xlink" x="0px" y="0px"
	 viewBox="0 0 1336 178" enable-background="new 0 0 1336 178" xml:space="preserve">
<g>
	<linearGradient id="SVGID_1_" gradientUnits="userSpaceOnUse" x1="78.7218" y1="12.191" x2="78.7218" y2="168.1193">
		<stop  offset="0" style="stop-color:#4B90CD"/>
		<stop  offset="0.2404" style="stop-color:#3F85C5"/>
		<stop  offset="0.6683" style="stop-color:#2F77BB"/>
		<stop  offset="1" style="stop-color:#2972B8"/>
	</linearGradient>
	<path fill="url(#SVGID_1_)" d="M37.4,130V31.3h38.4c28.1,0,44.4,21.5,44.4,49.5c0,27.9-16.3,49.1-44.4,49.1H37.4z M52.5,115.9h23.2
		c19.3,0,29.2-15.5,29.2-35.1c0-19.6-9.9-35.4-29.2-35.4H52.5V115.9z"/>
	<linearGradient id="SVGID_2_" gradientUnits="userSpaceOnUse" x1="163.6739" y1="12.1905" x2="163.6739" y2="168.1197">
		<stop  offset="0" style="stop-color:#4B90CD"/>
		<stop  offset="0.2404" style="stop-color:#3F85C5"/>
		<stop  offset="0.6683" style="stop-color:#2F77BB"/>
		<stop  offset="1" style="stop-color:#2972B8"/>
	</linearGradient>
	<path fill="url(#SVGID_2_)" d="M156.7,162.6h-15.5l14.5-35.8l-26.5-63.7H145l18.6,45.8l18.8-45.8h15.7L156.7,162.6z"/>
	<linearGradient id="SVGID_3_" gradientUnits="userSpaceOnUse" x1="240.6124" y1="12.1904" x2="240.6124" y2="168.1197">
		<stop  offset="0" style="stop-color:#4B90CD"/>
		<stop  offset="0.2404" style="stop-color:#3F85C5"/>
		<stop  offset="0.6683" style="stop-color:#2F77BB"/>
		<stop  offset="1" style="stop-color:#2972B8"/>
	</linearGradient>
	<path fill="url(#SVGID_3_)" d="M225,130h-14.7V63.1H225v10c3.9-7.7,13-11.5,20.5-11.5c16.2,0,25.5,10.5,25.5,29.3V130h-14.7V92.7
		c0-10.6-5.4-16.6-14-16.6c-8.7,0-17.2,4.7-17.2,17.9V130z"/>
	<linearGradient id="SVGID_4_" gradientUnits="userSpaceOnUse" x1="322.0555" y1="12.1904" x2="322.0555" y2="168.119">
		<stop  offset="0" style="stop-color:#4B90CD"/>
		<stop  offset="0.2404" style="stop-color:#3F85C5"/>
		<stop  offset="0.6683" style="stop-color:#2F77BB"/>
		<stop  offset="1" style="stop-color:#2972B8"/>
	</linearGradient>
	<path fill="url(#SVGID_4_)" d="M343,120.4c-4.4,7.3-14.2,11-22.5,11c-18,0-33.9-13.6-33.9-34.9c0-21.3,15.9-34.8,33.9-34.8
		c8,0,17.9,3.3,22.5,10.9v-9.4h14.6V130H343V120.4z M322.2,117.1c10.9,0,20.6-7.6,20.6-20.8c0-13.2-10.6-20.3-20.6-20.3
		c-11.2,0-20.5,8-20.5,20.3C301.7,108.6,311,117.1,322.2,117.1z"/>
	<linearGradient id="SVGID_5_" gradientUnits="userSpaceOnUse" x1="430.7015" y1="12.1904" x2="430.7015" y2="168.1197">
		<stop  offset="0" style="stop-color:#4B90CD"/>
		<stop  offset="0.2404" style="stop-color:#3F85C5"/>
		<stop  offset="0.6683" style="stop-color:#2F77BB"/>
		<stop  offset="1" style="stop-color:#2972B8"/>
	</linearGradient>
	<path fill="url(#SVGID_5_)" d="M438.1,94V130h-14.7V92.5c-0.1-10.3-5.7-16.3-13.6-16.3c-8.6,0-16.9,4.9-16.9,17.9V130h-14.7V63.1
		h14.7v10c4.4-9.3,15.7-11.5,21-11.5c10.6,0,17.3,4.9,21,13.3c6.3-11.6,16.3-13.3,22.5-13.3c16.5,0,25.8,10.7,25.8,29.8V130h-14.7
		V92.7c0-10.4-5.6-16.6-14.2-16.6C444.6,76.1,438.1,83.3,438.1,94z"/>
	<linearGradient id="SVGID_6_" gradientUnits="userSpaceOnUse" x1="720.8836" y1="12.1904" x2="720.8836" y2="168.1197">
		<stop  offset="0" style="stop-color:#4B90CD"/>
		<stop  offset="0.2404" style="stop-color:#3F85C5"/>
		<stop  offset="0.6683" style="stop-color:#2F77BB"/>
		<stop  offset="1" style="stop-color:#2972B8"/>
	</linearGradient>
	<path fill="url(#SVGID_6_)" d="M728.3,94V130h-14.7V92.5c-0.1-10.3-5.7-16.3-13.6-16.3c-8.6,0-16.9,4.9-16.9,17.9V130h-14.7V63.1
		h14.7v10c4.4-9.3,15.7-11.5,21-11.5c10.6,0,17.3,4.9,21,13.3c6.3-11.6,16.3-13.3,22.5-13.3c16.5,0,25.8,10.7,25.8,29.8V130h-14.7
		V92.7c0-10.4-5.6-16.6-14.2-16.6C734.8,76.1,728.3,83.3,728.3,94z"/>
	<linearGradient id="SVGID_7_" gradientUnits="userSpaceOnUse" x1="824.515" y1="12.1904" x2="824.515" y2="168.119">
		<stop  offset="0" style="stop-color:#4B90CD"/>
		<stop  offset="0.2404" style="stop-color:#3F85C5"/>
		<stop  offset="0.6683" style="stop-color:#2F77BB"/>
		<stop  offset="1" style="stop-color:#2972B8"/>
	</linearGradient>
	<path fill="url(#SVGID_7_)" d="M845.4,120.4c-4.4,7.3-14.2,11-22.5,11c-18,0-33.9-13.6-33.9-34.9c0-21.3,15.9-34.8,33.9-34.8
		c8,0,17.9,3.3,22.5,10.9v-9.4H860V130h-14.6V120.4z M824.7,117.1c10.9,0,20.6-7.6,20.6-20.8c0-13.2-10.6-20.3-20.6-20.3
		c-11.2,0-20.5,8-20.5,20.3C804.2,108.6,813.5,117.1,824.7,117.1z"/>
	<linearGradient id="SVGID_8_" gradientUnits="userSpaceOnUse" x1="910.97" y1="12.1904" x2="910.97" y2="168.1197">
		<stop  offset="0" style="stop-color:#4B90CD"/>
		<stop  offset="0.2404" style="stop-color:#3F85C5"/>
		<stop  offset="0.6683" style="stop-color:#2F77BB"/>
		<stop  offset="1" style="stop-color:#2972B8"/>
	</linearGradient>
	<path fill="url(#SVGID_8_)" d="M895.4,130h-14.7V63.1h14.7v10c3.9-7.7,13-11.5,20.5-11.5c16.2,0,25.5,10.5,25.5,29.3V130h-14.7
		V92.7c0-10.6-5.4-16.6-14-16.6c-8.7,0-17.2,4.7-17.2,17.9V130z"/>
	<linearGradient id="SVGID_9_" gradientUnits="userSpaceOnUse" x1="968.4393" y1="12.1911" x2="968.4393" y2="168.1187">
		<stop  offset="0" style="stop-color:#4B90CD"/>
		<stop  offset="0.2404" style="stop-color:#3F85C5"/>
		<stop  offset="0.6683" style="stop-color:#2F77BB"/>
		<stop  offset="1" style="stop-color:#2972B8"/>
	</linearGradient>
	<path fill="url(#SVGID_9_)" d="M968.5,26.8c5.4,0,9.7,4,9.7,9.3c0,5.3-4.3,9.3-9.7,9.3c-5.3,0-9.9-4-9.9-9.3
		C958.6,30.8,963.2,26.8,968.5,26.8z M975.8,63.1h-14.6V130h14.6V63.1z"/>
	<linearGradient id="SVGID_10_" gradientUnits="userSpaceOnUse" x1="1027.6283" y1="12.1904" x2="1027.6283" y2="168.119">
		<stop  offset="0" style="stop-color:#4B90CD"/>
		<stop  offset="0.2404" style="stop-color:#3F85C5"/>
		<stop  offset="0.6683" style="stop-color:#2F77BB"/>
		<stop  offset="1" style="stop-color:#2972B8"/>
	</linearGradient>
	<path fill="url(#SVGID_10_)" d="M1048.5,120.4c-4.4,7.3-14.2,11-22.5,11c-18,0-33.9-13.6-33.9-34.9c0-21.3,15.9-34.8,33.9-34.8
		c8,0,17.9,3.3,22.5,10.9v-9.4h14.6V130h-14.6V120.4z M1027.8,117.1c10.9,0,20.6-7.6,20.6-20.8c0-13.2-10.6-20.3-20.6-20.3
		c-11.2,0-20.5,8-20.5,20.3C1007.3,108.6,1016.6,117.1,1027.8,117.1z"/>
	<g>
		<linearGradient id="SVGID_11_" gradientUnits="userSpaceOnUse" x1="585.9734" y1="12.1904" x2="585.9734" y2="168.1193">
			<stop  offset="0" style="stop-color:#4B90CD"/>
			<stop  offset="0.2404" style="stop-color:#3F85C5"/>
			<stop  offset="0.6683" style="stop-color:#2F77BB"/>
			<stop  offset="1" style="stop-color:#2972B8"/>
		</linearGradient>
		<polygon fill="url(#SVGID_11_)" points="563.3,70.3 566.7,98.6 592.6,105.9 608.7,82 590.6,58.6 		"/>
		<linearGradient id="SVGID_12_" gradientUnits="userSpaceOnUse" x1="575.7896" y1="12.191" x2="575.7896" y2="168.1194">
			<stop  offset="0" style="stop-color:#4B90CD"/>
			<stop  offset="0.2404" style="stop-color:#3F85C5"/>
			<stop  offset="0.6683" style="stop-color:#2F77BB"/>
			<stop  offset="1" style="stop-color:#2972B8"/>
		</linearGradient>
		<path fill="url(#SVGID_12_)" d="M575.8,13.6c-42.7,0-77.2,34.6-77.2,77.2c0,42.7,34.6,77.2,77.2,77.2c42.7,0,77.2-34.6,77.2-77.2
			C653,48.2,618.4,13.6,575.8,13.6z M617.8,139.8l0.7-8.2l-21.7-8.5l-15.3,15.8l7.9,15c-4.4,0.9-8.9,1.4-13.6,1.4
			c-14.9,0-28.6-5.1-39.5-13.5l17.6-9.1l-2.2-26.8l-28-6.7l-9.2,11.6c-2-6.3-3.1-13-3.1-19.9c0-8.2,1.5-15.9,4.3-23.1l8.1,8.3
			l24-11.7l-1.8-30.6c8.4-4.5,18-7.1,28.1-7.4l19,18.1l18.9-7.1c9.9,6.6,17.8,16,22.7,26.9l-10.2,17.6l14.3,23.3l0,0
			C635.6,118.8,628.1,130.9,617.8,139.8z"/>
	</g>
</g>
<g>
	<path fill="#A3A4A3" d="M1187.8,88.1c-4.6,0-8.5,3.9-8.5,8.5c0,4.6,3.8,8.5,8.5,8.5c4.6,0,8.5-3.9,8.5-8.5
		C1196.3,92,1192.5,88.1,1187.8,88.1z"/>
	<path fill="#A3A4A3" d="M1288.4,63.1h-205.9V130h220.1V77.3C1302.6,69.5,1296.2,63.1,1288.4,63.1z M1105.1,117.9
		c-4.5,0-8.2-3.4-8.2-8.1c0-4.6,3.8-8,8.2-8c4.6,0,8.4,3.3,8.4,8C1113.5,114.5,1109.7,117.9,1105.1,117.9z M1143.4,117.9
		c-12.2,0-22.7-8.3-22.7-21.3c0-13,10.5-21.4,22.7-21.4c7.9,0,13.9,4,17.9,10.1l-11.4,6.8c-1.5-2.5-4.1-4-7.2-4
		c-4.6,0-8.5,3.9-8.5,8.5c0,4.6,3.8,8.5,8.5,8.5c2.9,0,5.4-1.5,7-3.8l11.6,6.5C1157.4,113.9,1151.2,117.9,1143.4,117.9z
		 M1187.8,117.9c-11.5,0-21.6-8.4-21.6-21.3c0-13,10.2-21.4,21.6-21.4c11.6,0,21.9,8.4,21.9,21.4
		C1209.7,109.5,1199.5,117.9,1187.8,117.9z M1285.2,117.1h-13.9V95.8c0-5.4-3.8-7.1-6.7-7.1c-3.2,0-6.1,1.7-6.1,6.9v21.4h-14V95.8
		c0-5.4-3.8-7.1-6.7-7.1c-3.2,0-6.1,1.7-6.1,6.9v21.4h-13.9V76.3h13.9v6.4c1.4-5.2,6.8-7.4,10.4-7.4c8,0,12.4,3.1,14.6,8.7
		c3.2-6.4,8.6-8.7,12.2-8.7c12.3,0,16.3,7.4,16.3,20.1V117.1z"/>
</g>
</svg>
