<?xml version="1.0" encoding="utf-8"?>
<!-- Generator: Adobe Illustrator 18.1.1, SVG Export Plug-In . SVG Version: 6.00 Build 0)  -->
<svg version="1.1" id="Layer_1" xmlns="http://www.w3.org/2000/svg" xmlns:xlink="http://www.w3.org/1999/xlink" x="0px" y="0px"
	 viewBox="0 0 20.2 25" enable-background="new 0 0 20.2 25" xml:space="preserve">
<path fill="#1972C4" d="M0,0v20c0,2.8,2.3,5,5,5h7.5h7.7v-1V0H0z"/>
<g>
	<path fill="#FFFFFF" d="M6.9,15.7h11.3l0.8-0.8V9l-0.8-0.8h-7.5V7.5L9.9,6.7H8.4L7.6,7.5v0.7H6.9L6.1,9v6L6.9,15.7z M12.6,9.2
		c1.4,0,2.6,1.1,2.6,2.6c0,1.4-1.1,2.6-2.6,2.6c-1.4,0-2.6-1.1-2.6-2.6C10,10.4,11.1,9.2,12.6,9.2L12.6,9.2z M12.6,9.2"/>
</g>
</svg>
