<?xml version="1.0" encoding="utf-8"?>
<!-- Generator: Adobe Illustrator 18.1.1, SVG Export Plug-In . SVG Version: 6.00 Build 0)  -->
<svg version="1.1" id="Layer_1" xmlns="http://www.w3.org/2000/svg" xmlns:xlink="http://www.w3.org/1999/xlink" x="0px" y="0px"
	 viewBox="0 0 22 18" enable-background="new 0 0 22 18" xml:space="preserve">
<g>
	<path fill="#FFFFFF" d="M10.9,9.3c0.9,0,1.7,0.8,1.7,1.7s-0.8,1.7-1.7,1.7S9.2,11.9,9.2,11S10,9.3,10.9,9.3 M10.9,7.6
		c-1.9,0-3.4,1.5-3.4,3.4s1.5,3.4,3.4,3.4c1.9,0,3.4-1.5,3.4-3.4S12.8,7.6,10.9,7.6L10.9,7.6z"/>
</g>
<path fill="#FFFFFF" d="M15.9,4V2V1V0h-10v1v1v2H0v14h22V4H15.9z M7.9,2h6v2h-6V2z M20,16H2V6h18V16z"/>
</svg>
