<?xml version="1.0" encoding="utf-8"?>
<!-- Generator: Adobe Illustrator 19.0.0, SVG Export Plug-In . SVG Version: 6.00 Build 0)  -->
<svg version="1.1" id="Layer_1" xmlns="http://www.w3.org/2000/svg" xmlns:xlink="http://www.w3.org/1999/xlink" x="0px" y="0px"
	 viewBox="0 0 32.5 24.4" style="enable-background:new 0 0 32.5 24.4;" xml:space="preserve">
<style type="text/css">
	.st0{fill:#1972C4;}
</style>
<g id="XMLID_16_">
	<g id="XMLID_90_">
		<path id="XMLID_93_" class="st0" d="M0,17.5c0-2.5,0.8-4.8,2.8-9L7,0h7.1l-2.9,11.5c2,1.3,3.3,3.1,3.3,6c0,3.9-3.2,6.9-7.4,6.9
			C2.9,24.4,0,21.5,0,17.5z"/>
		<path id="XMLID_91_" class="st0" d="M18,17.5c0-2.5,0.8-4.8,2.8-9L25.1,0h7.1l-2.9,11.5c2,1.3,3.3,3.1,3.3,6
			c0,3.9-3.2,6.9-7.4,6.9C21,24.4,18,21.5,18,17.5z"/>
	</g>
</g>
</svg>
