<?xml version="1.0" encoding="utf-8"?>
<!-- Generator: Adobe Illustrator 18.1.1, SVG Export Plug-In . SVG Version: 6.00 Build 0)  -->
<svg version="1.1" id="Layer_1" xmlns="http://www.w3.org/2000/svg" xmlns:xlink="http://www.w3.org/1999/xlink" x="0px" y="0px"
	 viewBox="0 0 16 36" enable-background="new 0 0 16 36" xml:space="preserve">
<g>
	<path fill="#1972C3" d="M8.8,2L14,8.8V16H2V2H8.8 M9.8,0H0v18h16V8.1L9.8,0L9.8,0z"/>
	<g>
		<rect x="3.9" y="4" fill="#1972C3" width="3" height="2"/>
	</g>
	<g>
		<rect x="3.9" y="8" fill="#1972C3" width="6" height="2"/>
	</g>
	<g>
		<rect x="3.9" y="12" fill="#1972C3" width="8" height="2"/>
	</g>
</g>
<g>
	<path fill="#0B90E6" d="M8.8,20l5.2,6.8V34H2V20H8.8 M9.8,18H0v18h16v-9.9L9.8,18L9.8,18z"/>
	<g>
		<rect x="3.9" y="22" fill="#0B90E6" width="3" height="2"/>
	</g>
	<g>
		<rect x="3.9" y="26" fill="#0B90E6" width="6" height="2"/>
	</g>
	<g>
		<rect x="3.9" y="30" fill="#0B90E6" width="8" height="2"/>
	</g>
</g>
</svg>
