<?xml version="1.0" encoding="utf-8"?>
<!-- Generator: Adobe Illustrator 19.0.0, SVG Export Plug-In . SVG Version: 6.00 Build 0)  -->
<svg version="1.1" id="Layer_1" xmlns="http://www.w3.org/2000/svg" xmlns:xlink="http://www.w3.org/1999/xlink" x="0px" y="0px"
	 viewBox="0 0 20 36" style="enable-background:new 0 0 20 36;" xml:space="preserve">
<style type="text/css">
	.st0{fill:#A2A2A2;}
	.st1{fill:#EFC514;}
</style>
<path id="XMLID_99_" class="st0" d="M17.1,0H2.9C1.3,0,0,1.3,0,2.9v7.2C0,11.7,1.3,13,2.9,13H4v5l7.5-5h5.6c1.6,0,2.9-1.3,2.9-2.9
	V2.9C20,1.3,18.7,0,17.1,0z M10.9,10.3H9V8.5h1.9V10.3z M10.6,7.2H9.4L8.8,2.7h2.3L10.6,7.2z"/>
<path id="XMLID_93_" class="st1" d="M17.1,18H2.9C1.3,18,0,19.3,0,20.9v7.2C0,29.7,1.3,31,2.9,31H4v5l7.5-5h5.6
	c1.6,0,2.9-1.3,2.9-2.9v-7.2C20,19.3,18.7,18,17.1,18z M10.9,28.3H9v-1.8h1.9V28.3z M10.6,25.2H9.4l-0.5-4.4h2.3L10.6,25.2z"/>
</svg>
