<?xml version="1.0" encoding="utf-8"?>
<!-- Generator: Adobe Illustrator 18.1.1, SVG Export Plug-In . SVG Version: 6.00 Build 0)  -->
<svg version="1.1" id="Layer_1" xmlns="http://www.w3.org/2000/svg" xmlns:xlink="http://www.w3.org/1999/xlink" x="0px" y="0px"
	 viewBox="35.9 1.6 36 76" enable-background="new 35.9 1.6 36 76" xml:space="preserve">
<rect x="35.9" y="1.6" fill="none" width="36" height="76"/>
<g>
	<ellipse fill="#FF8E29" cx="53.9" cy="22.3" rx="17.6" ry="17.3"/>
</g>
<g>
	<ellipse fill="#E8E8E8" cx="53.9" cy="19.3" rx="17.6" ry="17.3"/>
</g>
<g>
	<path fill="#A2A2A2" d="M49.2,22.7c-1.4,0-2.5,1.1-2.5,2.4s1.1,2.4,2.5,2.4c1.4,0,2.5-1.1,2.5-2.4S50.6,22.7,49.2,22.7L49.2,22.7z"
		/>
	<path fill="#A2A2A2" d="M47,16.5c-0.1,0-0.3,0.1-0.3,0.3v3.1c0,0.1,0.1,0.3,0.3,0.3c4,0,7.3,3.2,7.3,7.2c0,0.1,0.1,0.3,0.3,0.3h3.2
		c0.1,0,0.3-0.1,0.3-0.3v-0.1C57.9,21.3,53,16.5,47,16.5L47,16.5z"/>
	<path fill="#A2A2A2" d="M63.4,27.2c0-8.9-7.4-16.1-16.4-16.1c-0.1,0-0.3,0.1-0.3,0.3v3.2c0,0.1,0.1,0.3,0.3,0.3
		c7,0,12.7,5.6,12.7,12.5c0,0.1,0.1,0.3,0.3,0.3h3.2C63.3,27.6,63.4,27.5,63.4,27.2L63.4,27.2z"/>
</g>
<g opacity="0.2">
	<ellipse cx="53.9" cy="60.3" rx="17.6" ry="17.3"/>
</g>
<g>
	<ellipse fill="#FF8E29" cx="53.9" cy="57.3" rx="17.6" ry="17.3"/>
</g>
<g>
	<path fill="#FFFFFF" d="M49.2,60.7c-1.4,0-2.5,1.1-2.5,2.4c0,1.3,1.1,2.4,2.5,2.4c1.4,0,2.5-1.1,2.5-2.4
		C51.7,61.8,50.6,60.7,49.2,60.7L49.2,60.7z"/>
	<path fill="#FFFFFF" d="M47,54.5c-0.1,0-0.3,0.1-0.3,0.3v3.1c0,0.1,0.1,0.3,0.3,0.3c4,0,7.3,3.2,7.3,7.2c0,0.1,0.1,0.3,0.3,0.3h3.2
		c0.1,0,0.3-0.1,0.3-0.3v-0.1C57.9,59.3,53,54.5,47,54.5L47,54.5z"/>
	<path fill="#FFFFFF" d="M63.4,65.2c0-8.9-7.4-16.1-16.4-16.1c-0.1,0-0.3,0.1-0.3,0.3v3.2c0,0.1,0.1,0.3,0.3,0.3
		c7,0,12.7,5.6,12.7,12.5c0,0.1,0.1,0.3,0.3,0.3h3.2C63.3,65.6,63.4,65.5,63.4,65.2L63.4,65.2z"/>
</g>
</svg>
