<?xml version="1.0" encoding="utf-8"?>
<!-- Generator: Adobe Illustrator 18.1.1, SVG Export Plug-In . SVG Version: 6.00 Build 0)  -->
<svg version="1.1" id="Layer_1" xmlns="http://www.w3.org/2000/svg" xmlns:xlink="http://www.w3.org/1999/xlink" x="0px" y="0px"
	 viewBox="0 0 36 76" enable-background="new 0 0 36 76" xml:space="preserve">
<rect fill="none" width="36" height="76"/>
<g>
	<g>
		<ellipse fill="#FF8E29" cx="18" cy="20.7" rx="17.6" ry="17.3"/>
	</g>
	<g>
		<ellipse fill="#FFFFFF" cx="18" cy="17.7" rx="17.6" ry="17.3"/>
	</g>
</g>
<g>
	<path fill="#A2A2A2" d="M13.3,21.1c-1.4,0-2.5,1.1-2.5,2.4c0,1.3,1.1,2.4,2.5,2.4c1.4,0,2.5-1.1,2.5-2.4
		C15.8,22.2,14.7,21.1,13.3,21.1L13.3,21.1z M13.3,21.1"/>
	<path fill="#A2A2A2" d="M11.1,14.9c-0.1,0-0.3,0.1-0.3,0.3v3.1c0,0.1,0.1,0.3,0.3,0.3c4,0,7.3,3.2,7.3,7.2c0,0.1,0.1,0.3,0.3,0.3
		h3.2c0.1,0,0.3-0.1,0.3-0.3l0-0.1C22,19.7,17.1,14.9,11.1,14.9L11.1,14.9z M11.1,14.9"/>
	<path fill="#A2A2A2" d="M27.5,25.6c0-8.9-7.4-16.1-16.4-16.1c-0.1,0-0.3,0.1-0.3,0.3V13c0,0.1,0.1,0.3,0.3,0.3
		c7,0,12.7,5.6,12.7,12.5c0,0.1,0.1,0.3,0.3,0.3h3.2C27.4,26,27.5,25.9,27.5,25.6L27.5,25.6z M27.5,25.6"/>
</g>
<g opacity="0.2">
	<ellipse cx="18" cy="58.7" rx="17.6" ry="17.3"/>
</g>
<g>
	<ellipse fill="#FF8E29" cx="18" cy="55.7" rx="17.6" ry="17.3"/>
</g>
<g>
	<path fill="#FFFFFF" d="M13.3,59.1c-1.4,0-2.5,1.1-2.5,2.4c0,1.3,1.1,2.4,2.5,2.4c1.4,0,2.5-1.1,2.5-2.4
		C15.8,60.2,14.7,59.1,13.3,59.1L13.3,59.1z M13.3,59.1"/>
	<path fill="#FFFFFF" d="M11.1,52.9c-0.1,0-0.3,0.1-0.3,0.3v3.1c0,0.1,0.1,0.3,0.3,0.3c4,0,7.3,3.2,7.3,7.2c0,0.1,0.1,0.3,0.3,0.3
		h3.2c0.1,0,0.3-0.1,0.3-0.3l0-0.1C22,57.7,17.1,52.9,11.1,52.9L11.1,52.9z M11.1,52.9"/>
	<path fill="#FFFFFF" d="M27.5,63.6c0-8.9-7.4-16.1-16.4-16.1c-0.1,0-0.3,0.1-0.3,0.3V51c0,0.1,0.1,0.3,0.3,0.3
		c7,0,12.7,5.6,12.7,12.5c0,0.1,0.1,0.3,0.3,0.3h3.2C27.4,64,27.5,63.9,27.5,63.6L27.5,63.6z M27.5,63.6"/>
</g>
</svg>
