<?xml version="1.0" encoding="utf-8"?>
<!-- Generator: Adobe Illustrator 18.1.1, SVG Export Plug-In . SVG Version: 6.00 Build 0)  -->
<svg version="1.1" id="Layer_1" xmlns="http://www.w3.org/2000/svg" xmlns:xlink="http://www.w3.org/1999/xlink" x="0px" y="0px"
	 viewBox="20.8 0 26 32" enable-background="new 20.8 0 26 32" xml:space="preserve">
<g>
	<g>
		<g>
			<rect x="25.1" y="4.3" fill="#1972C4" width="5.1" height="2"/>
		</g>
		<g>
			<rect x="25.1" y="8.3" fill="#1972C4" width="5.1" height="2"/>
		</g>
	</g>
	<g>
		<g>
			<rect x="37.3" y="4.3" fill="#1972C4" width="5.1" height="2"/>
		</g>
		<g>
			<rect x="37.3" y="8.3" fill="#1972C4" width="5.1" height="2"/>
		</g>
	</g>
	<path fill="#1972C4" d="M44.7,0H38c-0.7,0-1.8,0.3-2.3,0.6l-1.6,0.8c-0.2,0.1-0.2,0.1-0.3,0.2c-0.1-0.1-0.1-0.1-0.3-0.2l-1.6-0.8
		C31.4,0.3,30.3,0,29.6,0h-6.7c-1.2,0-2.1,0.9-2.1,1.9v10.4c0,1.1,0.9,1.9,2,1.9h6.6c0.4,0,1,0.2,1.4,0.3l3,1.6l3-1.6
		c0.3-0.1,0.9-0.3,1.4-0.3h6.6c1,0,2-0.8,2-1.9V1.9C46.8,0.9,45.8,0,44.7,0z M32.8,13.4l-1-0.5c-0.6-0.4-1.6-0.6-2.3-0.6h-6.6V2h6.7
		c0.4,0,1,0.2,1.4,0.3l1.6,0.8c0.1,0.1,0.3,0.4,0.3,0.6V13.4z M44.7,12.3h-6.6c-0.7,0-1.7,0.2-2.3,0.6l-1,0.5V3.7
		c0-0.2,0.2-0.5,0.3-0.6l1.6-0.8C36.9,2.2,37.6,2,38,2h6.7V12.3z"/>
</g>
<g>
	<g>
		<g>
			<rect x="25.1" y="20.3" fill="#0090E8" width="5.1" height="2"/>
		</g>
		<g>
			<rect x="25.1" y="24.3" fill="#0090E8" width="5.1" height="2"/>
		</g>
	</g>
	<g>
		<g>
			<rect x="37.3" y="20.3" fill="#0090E8" width="5.1" height="2"/>
		</g>
		<g>
			<rect x="37.3" y="24.3" fill="#0090E8" width="5.1" height="2"/>
		</g>
	</g>
	<path fill="#0090E8" d="M44.7,16H38c-0.7,0-1.8,0.3-2.3,0.6l-1.6,0.8c-0.2,0.1-0.2,0.1-0.3,0.2c-0.1-0.1-0.1-0.1-0.3-0.2l-1.6-0.8
		c-0.5-0.3-1.6-0.6-2.3-0.6h-6.7c-1.2,0-2.1,0.9-2.1,1.9v10.4c0,1.1,0.9,1.9,2,1.9h6.6c0.4,0,1,0.2,1.4,0.3l3,1.6l3-1.6
		c0.3-0.1,0.9-0.3,1.4-0.3h6.6c1,0,2-0.8,2-1.9V17.9C46.8,16.9,45.8,16,44.7,16z M32.8,29.4l-1-0.5c-0.6-0.4-1.6-0.6-2.3-0.6h-6.6
		V18h6.7c0.4,0,1,0.2,1.4,0.3l1.6,0.8c0.1,0.1,0.3,0.4,0.3,0.6V29.4z M44.7,28.3h-6.6c-0.7,0-1.7,0.2-2.3,0.6l-1,0.5v-9.8
		c0-0.2,0.2-0.5,0.3-0.6l1.6-0.8c0.3-0.1,0.9-0.3,1.4-0.3h6.7V28.3z"/>
</g>
<rect x="21.3" fill="none" width="25" height="32"/>
</svg>
