<?xml version="1.0" encoding="utf-8"?>
<!-- Generator: Adobe Illustrator 18.1.1, SVG Export Plug-In . SVG Version: 6.00 Build 0)  -->
<svg version="1.1" id="Layer_1" xmlns="http://www.w3.org/2000/svg" xmlns:xlink="http://www.w3.org/1999/xlink" x="0px" y="0px"
	 viewBox="0 0 22 22" enable-background="new 0 0 22 22" xml:space="preserve">
<rect fill="none" width="22" height="22"/>
<path fill="#FFFFFF" d="M22,19.7L18.3,16c1.2-1.7,1.9-3.7,1.9-5.9C20.2,4.5,15.7,0,10.1,0S0,4.5,0,10.1s4.5,10.1,10.1,10.1
	c2.2,0,4.2-0.7,5.9-1.9l3.7,3.7L22,19.7z M10.1,18.1c-4.4,0-8-3.6-8-8c0-4.4,3.6-8,8-8c4.4,0,8,3.6,8,8
	C18.1,14.5,14.5,18.1,10.1,18.1z"/>
</svg>
