<?xml version="1.0" encoding="utf-8"?>
<!-- Generator: Adobe Illustrator 19.0.0, SVG Export Plug-In . SVG Version: 6.00 Build 0)  -->
<svg version="1.1" id="Layer_1" xmlns="http://www.w3.org/2000/svg" xmlns:xlink="http://www.w3.org/1999/xlink" x="0px" y="0px"
	 viewBox="0 0 36 76" style="enable-background:new 0 0 36 76;" xml:space="preserve">
<style type="text/css">
	.st0{fill:#3F3F3F;}
	.st1{fill:#E9E9E9;}
	.st2{fill:#A2A2A2;}
	.st3{opacity:0.2;}
	.st4{fill:#08B6EF;}
</style>
<g id="XMLID_119_">
	<g id="XMLID_121_">
		<g id="XMLID_125_">
			<ellipse id="XMLID_126_" class="st0" cx="18" cy="20.5" rx="18" ry="17.5"/>
		</g>
		<g id="XMLID_123_">
			<ellipse id="XMLID_124_" class="st1" cx="18" cy="17.5" rx="18" ry="17.5"/>
		</g>
	</g>
	<path id="XMLID_120_" class="st2" d="M28.9,12.6c-0.7,0.3-1.5,0.5-2.4,0.6c0.8-0.5,1.5-1.3,1.8-2.2c-0.8,0.5-1.7,0.8-2.6,1
		c-0.7-0.8-1.8-1.3-3-1.3c-2.3,0-4.1,1.8-4.1,4c0,0.3,0,0.6,0.1,0.9c-3.4-0.2-6.4-1.8-8.5-4.2c-0.4,0.6-0.6,1.3-0.6,2
		c0,1.4,0.8,2.6,1.9,3.3c-0.7,0-1.7-0.2-1.7-0.5c0,0,0,0,0,0.1c0,1.9,1.3,3.5,3.2,3.9c-0.3,0.1-0.8,0.1-1.1,0.1
		c-0.3,0-0.6,0-0.8-0.1c0.5,1.6,2,2.7,3.8,2.8c-1.4,1.1-3.2,1.7-5.1,1.7c-0.3,0-0.7,0-1-0.1c1.8,1.1,4,1.8,6.3,1.8
		c7.5,0,11.7-6.1,11.7-11.3c0-0.2,0-0.3,0-0.5C27.7,14.1,28.4,13.4,28.9,12.6z"/>
</g>
<g id="XMLID_157_" class="st3">
	<ellipse id="XMLID_158_" cx="18" cy="58.5" rx="18" ry="17.5"/>
</g>
<g id="XMLID_130_">
	<ellipse id="XMLID_131_" class="st0" cx="18" cy="55.5" rx="18" ry="17.5"/>
</g>
<path id="XMLID_128_" class="st4" d="M28.9,50.6c-0.7,0.3-1.5,0.5-2.4,0.6c0.8-0.5,1.5-1.3,1.8-2.2c-0.8,0.5-1.7,0.8-2.6,1
	c-0.7-0.8-1.8-1.3-3-1.3c-2.3,0-4.1,1.8-4.1,4c0,0.3,0,0.6,0.1,0.9c-3.4-0.2-6.4-1.8-8.5-4.2c-0.4,0.6-0.6,1.3-0.6,2
	c0,1.4,0.8,2.6,1.9,3.3c-0.7,0-1.7-0.2-1.7-0.5c0,0,0,0,0,0.1c0,1.9,1.3,3.5,3.2,3.9c-0.3,0.1-0.8,0.1-1.1,0.1c-0.3,0-0.6,0-0.8-0.1
	c0.5,1.6,2,2.7,3.8,2.8c-1.4,1.1-3.2,1.7-5.1,1.7c-0.3,0-0.7,0-1-0.1c1.8,1.1,4,1.8,6.3,1.8c7.5,0,11.7-6.1,11.7-11.3
	c0-0.2,0-0.3,0-0.5C27.7,52.1,28.4,51.4,28.9,50.6z"/>
</svg>
