<?xml version="1.0" encoding="utf-8"?>
<!-- Generator: Adobe Illustrator 18.1.1, SVG Export Plug-In . SVG Version: 6.00 Build 0)  -->
<svg version="1.1" id="Layer_1" xmlns="http://www.w3.org/2000/svg" xmlns:xlink="http://www.w3.org/1999/xlink" x="0px" y="0px"
	 viewBox="0 0 36 76" enable-background="new 0 0 36 76" xml:space="preserve">
<rect x="0" fill="none" width="36" height="76"/>
<g>
	<ellipse fill="#3F3F3F" cx="18" cy="20.7" rx="17.6" ry="17.3"/>
</g>
<g>
	<ellipse fill="#FFFFFF" cx="18" cy="17.7" rx="17.6" ry="17.3"/>
</g>
<g opacity="0.2">
	<ellipse cx="18" cy="58.7" rx="17.6" ry="17.3"/>
</g>
<g>
	<ellipse fill="#3F3F3F" cx="18" cy="55.7" rx="17.6" ry="17.3"/>
</g>
<path fill="#A2A2A2" d="M27.7,11.7c-0.7,0.3-1.5,0.5-2.3,0.6c0.8-0.5,1.5-1.3,1.8-2.2c-0.8,0.5-1.6,0.8-2.5,1
	c-0.7-0.8-1.8-1.3-2.9-1.3c-2.2,0-4,1.8-4,4c0,0.3,0,0.6,0.1,0.9c-3.3-0.2-6.3-1.8-8.2-4.2c-0.3,0.6-0.5,1.3-0.5,2
	c0,1.4,0.7,2.6,1.8,3.3c-0.7,0-1.3-0.2-1.8-0.5c0,0,0,0,0,0.1c0,1.9,1.4,3.5,3.2,3.9c-0.3,0.1-0.7,0.1-1,0.1c-0.3,0-0.5,0-0.8-0.1
	c0.5,1.6,2,2.7,3.7,2.8c-1.4,1.1-3.1,1.7-5,1.7c-0.3,0-0.6,0-1-0.1c1.8,1.1,3.9,1.8,6.1,1.8c7.3,0,11.3-6.1,11.3-11.3
	c0-0.2,0-0.3,0-0.5C26.5,13.2,27.2,12.5,27.7,11.7z"/>
<path fill="#55ACEE" d="M27.7,49.7c-0.7,0.3-1.5,0.5-2.3,0.6c0.8-0.5,1.5-1.3,1.8-2.2c-0.8,0.5-1.6,0.8-2.5,1
	c-0.7-0.8-1.8-1.3-2.9-1.3c-2.2,0-4,1.8-4,4c0,0.3,0,0.6,0.1,0.9c-3.3-0.2-6.3-1.8-8.2-4.2c-0.3,0.6-0.5,1.3-0.5,2
	c0,1.4,0.7,2.6,1.8,3.3c-0.7,0-1.3-0.2-1.8-0.5c0,0,0,0,0,0.1c0,1.9,1.4,3.5,3.2,3.9c-0.3,0.1-0.7,0.1-1,0.1c-0.3,0-0.5,0-0.8-0.1
	c0.5,1.6,2,2.7,3.7,2.8c-1.4,1.1-3.1,1.7-5,1.7c-0.3,0-0.6,0-1-0.1c1.8,1.1,3.9,1.8,6.1,1.8c7.3,0,11.3-6.1,11.3-11.3
	c0-0.2,0-0.3,0-0.5C26.5,51.2,27.2,50.5,27.7,49.7z"/>
</svg>
