<?xml version="1.0" encoding="utf-8"?>
<!-- Generator: Adobe Illustrator 18.1.1, SVG Export Plug-In . SVG Version: 6.00 Build 0)  -->
<svg version="1.1" id="Layer_1" xmlns="http://www.w3.org/2000/svg" xmlns:xlink="http://www.w3.org/1999/xlink" x="0px" y="0px"
	 viewBox="0 0 13.8 9.7" enable-background="new 0 0 13.8 9.7" xml:space="preserve">
<g id="Lozenge_7_">
	<g>
		<path fill="#CB181E" d="M13.7,2.1c0,0-0.1-1-0.5-1.4c-0.5-0.6-1.1-0.6-1.4-0.6C9.8,0,6.9,0,6.9,0h0c0,0-2.9,0-4.8,0.1
			c-0.3,0-0.9,0-1.4,0.6C0.3,1.1,0.1,2.1,0.1,2.1S0,3.2,0,4.3v1c0,1.1,0.1,2.2,0.1,2.2s0.1,1,0.5,1.4c0.5,0.6,1.2,0.5,1.5,0.6
			c1.1,0.1,4.7,0.1,4.7,0.1s2.9,0,4.8-0.1c0.3,0,0.9,0,1.4-0.6c0.4-0.4,0.5-1.4,0.5-1.4s0.1-1.1,0.1-2.2v-1
			C13.8,3.2,13.7,2.1,13.7,2.1z M4.8,7.4l0-5.4l5.2,2.7L4.8,7.4z"/>
	</g>
</g>
</svg>
