<?xml version="1.0" encoding="utf-8"?>
<!-- Generator: Adobe Illustrator 18.1.1, SVG Export Plug-In . SVG Version: 6.00 Build 0)  -->
<svg version="1.1" id="Layer_1" xmlns="http://www.w3.org/2000/svg" xmlns:xlink="http://www.w3.org/1999/xlink" x="0px" y="0px"
	 viewBox="0 0 20.2 25" enable-background="new 0 0 20.2 25" xml:space="preserve">
<path fill="#CB181E" d="M0,0v20c0,2.8,2.3,5,5,5h7.5h7.7v-1V0H0z"/>
<g id="Lozenge_4_">
	<g>
		<path fill="#FFFFFF" d="M18.9,9.7c0,0-0.1-0.8-0.5-1.2c-0.5-0.5-1-0.5-1.2-0.5C15.5,7.9,13,7.9,13,7.9h0c0,0-2.5,0-4.2,0.1
			c-0.2,0-0.8,0-1.2,0.5C7.2,8.9,7.1,9.7,7.1,9.7s-0.1,1-0.1,2v0.9c0,1,0.1,2,0.1,2s0.1,0.8,0.5,1.2c0.5,0.5,1.1,0.5,1.3,0.5
			c1,0.1,4.1,0.1,4.1,0.1s2.5,0,4.2-0.1c0.2,0,0.8,0,1.2-0.5c0.4-0.4,0.5-1.2,0.5-1.2s0.1-1,0.1-2v-0.9C19,10.7,18.9,9.7,18.9,9.7z
			 M11.1,14.4l0-4.7l4.5,2.3L11.1,14.4z"/>
	</g>
</g>
</svg>
