<?xml version="1.0" encoding="utf-8"?>
<!-- Generator: Adobe Illustrator 19.0.0, SVG Export Plug-In . SVG Version: 6.00 Build 0)  -->
<svg version="1.1" id="Layer_1" xmlns="http://www.w3.org/2000/svg" xmlns:xlink="http://www.w3.org/1999/xlink" x="0px" y="0px"
	 viewBox="0 0 36 76" style="enable-background:new 0 0 36 76;" xml:space="preserve">
<style type="text/css">
	.st0{fill:#4D75A2;}
	.st1{fill:#E9E9E9;}
	.st2{fill-rule:evenodd;clip-rule:evenodd;fill:#A2A2A2;}
	.st3{opacity:0.2;}
	.st4{fill-rule:evenodd;clip-rule:evenodd;fill:#FFFFFF;}
</style>
<g id="XMLID_117_">
	<g id="XMLID_1_">
		<g id="XMLID_3_">
			<g id="XMLID_38_">
				<ellipse id="XMLID_39_" class="st0" cx="18" cy="20.5" rx="18" ry="17.5"/>
			</g>
			<g id="XMLID_36_">
				<ellipse id="XMLID_37_" class="st1" cx="18" cy="17.5" rx="18" ry="17.5"/>
			</g>
		</g>
		<path id="XMLID_2_" class="st2" d="M17.7,24.4h1.4c0,0,0.4,0,0.6-0.3C20,24,20,23.6,20,23.6s0-1.8,0.8-2.1c0.9-0.3,2,1.8,3.1,2.5
			c0.9,0.6,1.6,0.5,1.6,0.5l3.1,0c0,0,1.6-0.1,0.9-1.4c-0.1-0.1-0.5-0.9-2.3-2.6c-2-1.8-1.7-1.5,0.7-4.6c1.4-1.9,2-3,1.8-3.5
			c-0.2-0.5-1.2-0.3-1.2-0.3l-3.5,0c0,0-0.3,0-0.5,0.1c-0.2,0.1-0.3,0.4-0.3,0.4s-0.6,1.4-1.3,2.7c-1.6,2.6-2.2,2.7-2.5,2.6
			c-0.6-0.4-0.4-1.5-0.4-2.3c0-2.5,0.4-3.6-0.8-3.8c-0.4-0.1-0.7-0.1-1.6-0.2c-1.3,0-2.3,0-2.9,0.3c-0.4,0.2-0.7,0.6-0.5,0.6
			c0.2,0,0.8,0.1,1,0.5c0.4,0.5,0.3,1.6,0.3,1.6s0.2,3-0.5,3.3c-0.5,0.3-1.1-0.3-2.5-2.6c-0.7-1.2-1.3-2.5-1.3-2.5s-0.1-0.2-0.3-0.4
			c-0.2-0.2-0.5-0.2-0.5-0.2l-3.4,0c0,0-0.5,0-0.7,0.2c-0.2,0.2,0,0.6,0,0.6s2.6,6,5.6,9C14.7,24.6,17.7,24.4,17.7,24.4L17.7,24.4z"
			/>
	</g>
	<g id="XMLID_54_" class="st3">
		<ellipse id="XMLID_93_" cx="18" cy="58.5" rx="18" ry="17.5"/>
	</g>
	<g id="XMLID_52_">
		<ellipse id="XMLID_53_" class="st0" cx="18" cy="55.5" rx="18" ry="17.5"/>
	</g>
	<path id="XMLID_50_" class="st4" d="M17.7,62.4h1.4c0,0,0.4,0,0.6-0.3C20,62,20,61.6,20,61.6s0-1.8,0.8-2.1c0.9-0.3,2,1.8,3.1,2.5
		c0.9,0.6,1.6,0.5,1.6,0.5l3.1,0c0,0,1.6-0.1,0.9-1.4c-0.1-0.1-0.5-0.9-2.3-2.6c-2-1.8-1.7-1.5,0.7-4.6c1.4-1.9,2-3,1.8-3.5
		c-0.2-0.5-1.2-0.3-1.2-0.3l-3.5,0c0,0-0.3,0-0.5,0.1c-0.2,0.1-0.3,0.4-0.3,0.4s-0.6,1.4-1.3,2.7c-1.6,2.6-2.2,2.7-2.5,2.6
		c-0.6-0.4-0.4-1.5-0.4-2.3c0-2.5,0.4-3.6-0.8-3.8c-0.4-0.1-0.7-0.1-1.6-0.2c-1.3,0-2.3,0-2.9,0.3c-0.4,0.2-0.7,0.6-0.5,0.6
		c0.2,0,0.8,0.1,1,0.5c0.4,0.5,0.3,1.6,0.3,1.6s0.2,3-0.5,3.3c-0.5,0.3-1.1-0.3-2.5-2.6c-0.7-1.2-1.3-2.5-1.3-2.5s-0.1-0.2-0.3-0.4
		c-0.2-0.2-0.5-0.2-0.5-0.2l-3.4,0c0,0-0.5,0-0.7,0.2c-0.2,0.2,0,0.6,0,0.6s2.6,6,5.6,9C14.7,62.6,17.7,62.4,17.7,62.4L17.7,62.4z"
		/>
</g>
</svg>
