<?xml version="1.0" encoding="utf-8"?>
<!-- Generator: Adobe Illustrator 19.0.0, SVG Export Plug-In . SVG Version: 6.00 Build 0)  -->
<svg version="1.1" id="Layer_1" xmlns="http://www.w3.org/2000/svg" xmlns:xlink="http://www.w3.org/1999/xlink" x="0px" y="0px"
	 viewBox="0 0 70 76" style="enable-background:new 0 0 70 76;" xml:space="preserve">
<style type="text/css">
	.st0{opacity:0.1;}
	.st1{fill:#4D75A2;}
	.st2{opacity:0.2;fill:#FFFFFF;}
	.st3{fill:#F3F3F5;}
</style>
<g id="XMLID_107_">
	<g id="XMLID_84_" class="st0">
		<path id="XMLID_112_" d="M63.3,41c0,0-45.6,0-45.8,0C7.8,41,0,48.8,0,58.5C0,68.2,7.8,76,17.5,76c0.2,0,45.8,0,45.8,0
			c3.7,0,6.7-2.8,6.7-6.2V47.2C70,43.8,67,41,63.3,41z"/>
	</g>
	<g id="XMLID_63_">
		<path id="XMLID_64_" class="st1" d="M63.3,38c0,0-45.6,0-45.8,0C7.8,38,0,45.8,0,55.5C0,65.2,7.8,73,17.5,73c0.2,0,45.8,0,45.8,0
			c3.7,0,6.7-2.8,6.7-6.2V44.2C70,40.8,67,38,63.3,38z"/>
	</g>
</g>
<path id="XMLID_90_" class="st2" d="M63.3,38c0,0-15.3,0-28.3,0c-9.3,0-17.4,0-17.5,0C7.8,38,0,45.8,0,55.5C0,65.2,7.8,73,17.5,73
	c0.1,0,8.2,0,17.5,0c12.9,0,28.3,0,28.3,0c3.7,0,6.7-2.8,6.7-6.2V44.2C70,40.8,67,38,63.3,38z"/>
<g id="XMLID_142_">
	<g id="XMLID_145_" class="st0">
		<path id="XMLID_146_" d="M63.3,3c0,0-45.6,0-45.8,0C7.8,3,0,10.8,0,20.5C0,30.2,7.8,38,17.5,38c0.2,0,45.8,0,45.8,0
			c3.7,0,6.7-2.8,6.7-6.2V9.2C70,5.8,67,3,63.3,3z"/>
	</g>
	<g id="XMLID_143_">
		<path id="XMLID_144_" class="st1" d="M63.3,0c0,0-45.6,0-45.8,0C7.8,0,0,7.8,0,17.5C0,27.2,7.8,35,17.5,35c0.2,0,45.8,0,45.8,0
			c3.7,0,6.7-2.8,6.7-6.2V6.2C70,2.8,67,0,63.3,0z"/>
	</g>
</g>
<path id="XMLID_62_" class="st2" d="M35,35h28.3c3.7,0,6.7-2.8,6.7-6.2V6.2C70,2.8,67,0,63.3,0H35V35z"/>
<path id="XMLID_148_" class="st3" d="M21.6,11c-1.3,0-2.6,0.8-3.3,2.6c-0.7-1.8-2-2.6-3.3-2.6c-2.5,0-4.4,2.1-4.4,4.7
	c0,0.7,0.1,1.4,0.3,2c0,0,0.2,0.6,0.3,0.9c1.9,4,7,6.6,7,6.6s5.2-2.6,7-6.6c0.2-0.3,0.3-0.9,0.3-0.9c0.2-0.6,0.3-1.3,0.3-2
	C26,13.1,24,11,21.6,11z"/>
<path id="XMLID_117_" class="st3" d="M21.6,49c-1.3,0-2.6,0.8-3.3,2.6c-0.7-1.8-2-2.6-3.3-2.6c-2.5,0-4.4,2.1-4.4,4.7
	c0,0.7,0.1,1.4,0.3,2c0,0,0.2,0.6,0.3,0.9c1.9,4,7,6.6,7,6.6s5.2-2.6,7-6.6c0.2-0.3,0.3-0.9,0.3-0.9c0.2-0.6,0.3-1.3,0.3-2
	C26,51.1,24,49,21.6,49z"/>
</svg>
