<?xml version="1.0" encoding="utf-8"?>
<!-- Generator: Adobe Illustrator 18.1.1, SVG Export Plug-In . SVG Version: 6.00 Build 0)  -->
<svg version="1.1" id="Layer_1" xmlns="http://www.w3.org/2000/svg" xmlns:xlink="http://www.w3.org/1999/xlink" x="0px" y="0px"
	 viewBox="0 0 36 76" enable-background="new 0 0 36 76" xml:space="preserve">
<rect x="0" fill="none" width="36" height="76"/>
<g>
	<ellipse fill="#4D75A2" cx="18" cy="20.7" rx="17.6" ry="17.3"/>
</g>
<g>
	<ellipse fill="#FFFFFF" cx="18" cy="17.7" rx="17.6" ry="17.3"/>
</g>
<g opacity="0.2">
	<ellipse cx="18" cy="58.7" rx="17.6" ry="17.3"/>
</g>
<g>
	<ellipse fill="#4D75A2" cx="18" cy="55.7" rx="17.6" ry="17.3"/>
</g>
<path fill-rule="evenodd" clip-rule="evenodd" fill="#A2A2A2" d="M17.8,24.2h1.4c0,0,0.4,0,0.6-0.3c0.2-0.2,0.2-0.6,0.2-0.6
	s0-1.8,0.8-2.1c0.8-0.3,1.9,1.8,3.1,2.5c0.9,0.6,1.5,0.5,1.5,0.5l3,0c0,0,1.6-0.1,0.8-1.4c-0.1-0.1-0.4-0.9-2.3-2.6
	c-1.9-1.8-1.7-1.5,0.6-4.6c1.4-1.9,2-3,1.8-3.5c-0.2-0.5-1.2-0.3-1.2-0.3l-3.4,0c0,0-0.3,0-0.4,0.1C24.1,12,24,12.3,24,12.3
	s-0.5,1.4-1.3,2.7c-1.5,2.6-2.1,2.7-2.4,2.6c-0.6-0.4-0.4-1.5-0.4-2.3c0-2.5,0.4-3.6-0.7-3.8c-0.4-0.1-0.6-0.1-1.6-0.2
	c-1.2,0-2.3,0-2.8,0.3c-0.4,0.2-0.7,0.6-0.5,0.6c0.2,0,0.7,0.1,1,0.5c0.4,0.5,0.3,1.6,0.3,1.6s0.2,3-0.5,3.3
	c-0.5,0.3-1.1-0.3-2.5-2.6c-0.7-1.2-1.2-2.5-1.2-2.5s-0.1-0.2-0.3-0.4c-0.2-0.2-0.5-0.2-0.5-0.2l-3.3,0c0,0-0.5,0-0.7,0.2
	c-0.2,0.2,0,0.6,0,0.6s2.6,6,5.4,9C14.7,24.3,17.8,24.2,17.8,24.2L17.8,24.2z"/>
<path fill-rule="evenodd" clip-rule="evenodd" fill="#FFFFFF" d="M17.8,62.2h1.4c0,0,0.4,0,0.6-0.3c0.2-0.2,0.2-0.6,0.2-0.6
	s0-1.8,0.8-2.1c0.8-0.3,1.9,1.8,3.1,2.5c0.9,0.6,1.5,0.5,1.5,0.5l3,0c0,0,1.6-0.1,0.8-1.4c-0.1-0.1-0.4-0.9-2.3-2.6
	c-1.9-1.8-1.7-1.5,0.6-4.6c1.4-1.9,2-3,1.8-3.5c-0.2-0.5-1.2-0.3-1.2-0.3l-3.4,0c0,0-0.3,0-0.4,0.1C24.1,50,24,50.3,24,50.3
	s-0.5,1.4-1.3,2.7c-1.5,2.6-2.1,2.7-2.4,2.6c-0.6-0.4-0.4-1.5-0.4-2.3c0-2.5,0.4-3.6-0.7-3.8c-0.4-0.1-0.6-0.1-1.6-0.2
	c-1.2,0-2.3,0-2.8,0.3c-0.4,0.2-0.7,0.6-0.5,0.6c0.2,0,0.7,0.1,1,0.5c0.4,0.5,0.3,1.6,0.3,1.6s0.2,3-0.5,3.3
	c-0.5,0.3-1.1-0.3-2.5-2.6c-0.7-1.2-1.2-2.5-1.2-2.5s-0.1-0.2-0.3-0.4c-0.2-0.2-0.5-0.2-0.5-0.2l-3.3,0c0,0-0.5,0-0.7,0.2
	c-0.2,0.2,0,0.6,0,0.6s2.6,6,5.4,9C14.7,62.3,17.8,62.2,17.8,62.2L17.8,62.2z"/>
</svg>
