<?xml version="1.0" encoding="utf-8"?>
<!-- Generator: Adobe Illustrator 18.1.1, SVG Export Plug-In . SVG Version: 6.00 Build 0)  -->
<svg version="1.1" id="Layer_1" xmlns="http://www.w3.org/2000/svg" xmlns:xlink="http://www.w3.org/1999/xlink" x="0px" y="0px"
	 viewBox="0 0 36 76" enable-background="new 0 0 36 76" xml:space="preserve">
<rect x="0" fill="none" width="36" height="76"/>
<g>
	<ellipse fill="#CB181E" cx="18" cy="20.7" rx="17.6" ry="17.3"/>
</g>
<g>
	<ellipse fill="#FFFFFF" cx="18" cy="17.7" rx="17.6" ry="17.3"/>
</g>
<g opacity="0.2">
	<ellipse cx="18" cy="58.7" rx="17.6" ry="17.3"/>
</g>
<g>
	<ellipse fill="#CB181E" cx="18" cy="55.7" rx="17.6" ry="17.3"/>
</g>
<g id="Lozenge">
	<g>
		<path fill="#A2A2A2" d="M27.2,13.9c0,0-0.2-1.3-0.7-1.9c-0.7-0.7-1.5-0.8-1.9-0.8C22,11.1,18,11.1,18,11.1h0c0,0-4,0-6.6,0.2
			c-0.4,0-1.2,0-1.9,0.8c-0.6,0.6-0.7,1.9-0.7,1.9s-0.2,1.5-0.2,3v1.4c0,1.5,0.2,3,0.2,3s0.2,1.3,0.7,1.9c0.7,0.8,1.7,0.7,2.1,0.8
			c1.5,0.1,6.4,0.2,6.4,0.2s4,0,6.6-0.2c0.4,0,1.2,0,1.9-0.8c0.6-0.6,0.7-1.9,0.7-1.9s0.2-1.5,0.2-3V17
			C27.4,15.5,27.2,13.9,27.2,13.9z M15.1,21.1l0-7.3l7,3.7L15.1,21.1z"/>
	</g>
</g>
<g id="Lozenge_2_">
	<g>
		<path fill="#FFFFFF" d="M27.2,51.9c0,0-0.2-1.3-0.7-1.9c-0.7-0.7-1.5-0.8-1.9-0.8C22,49.1,18,49.1,18,49.1h0c0,0-4,0-6.6,0.2
			c-0.4,0-1.2,0-1.9,0.8c-0.6,0.6-0.7,1.9-0.7,1.9s-0.2,1.5-0.2,3v1.4c0,1.5,0.2,3,0.2,3s0.2,1.3,0.7,1.9c0.7,0.8,1.7,0.7,2.1,0.8
			c1.5,0.1,6.4,0.2,6.4,0.2s4,0,6.6-0.2c0.4,0,1.2,0,1.9-0.8c0.6-0.6,0.7-1.9,0.7-1.9s0.2-1.5,0.2-3V55
			C27.4,53.5,27.2,51.9,27.2,51.9z M15.1,59.1l0-7.3l7,3.7L15.1,59.1z"/>
	</g>
</g>
</svg>
